<mxfile host="app.diagrams.net" modified="2023-09-22T17:37:49.198Z" agent="Mozilla/5.0 (X11; Linux x86_64; rv:103.0) Gecko/20100101 Firefox/103.0" etag="YfrZhpeTwXJjEOp5iGVS" version="21.6.9" type="github">
  <diagram name="PÃ¡gina-1" id="XzFF6OF0_TYQQi94aHhR">
    <mxGraphModel dx="1434" dy="718" grid="1" gridSize="10" guides="1" tooltips="1" connect="1" arrows="1" fold="1" page="1" pageScale="1" pageWidth="827" pageHeight="1169" math="0" shadow="0">
      <root>
        <mxCell id="0" />
        <mxCell id="1" parent="0" />
        <mxCell id="6J3txEoCyXHGG0Ito6z_-2" value="Turmas" style="rounded=1;arcSize=10;whiteSpace=wrap;html=1;align=center;" vertex="1" parent="1">
          <mxGeometry x="660" y="90" width="170" height="80" as="geometry" />
        </mxCell>
        <mxCell id="6J3txEoCyXHGG0Ito6z_-3" value="Escola" style="rounded=1;arcSize=10;whiteSpace=wrap;html=1;align=center;" vertex="1" parent="1">
          <mxGeometry x="50" y="80" width="180" height="80" as="geometry" />
        </mxCell>
        <mxCell id="6J3txEoCyXHGG0Ito6z_-5" value="Sala" style="rounded=1;arcSize=10;whiteSpace=wrap;html=1;align=center;" vertex="1" parent="1">
          <mxGeometry x="1050" y="400" width="180" height="70" as="geometry" />
        </mxCell>
        <mxCell id="6J3txEoCyXHGG0Ito6z_-6" value="Aulas" style="rounded=1;arcSize=10;whiteSpace=wrap;html=1;align=center;" vertex="1" parent="1">
          <mxGeometry x="1290" y="480" width="175" height="80" as="geometry" />
        </mxCell>
        <mxCell id="6J3txEoCyXHGG0Ito6z_-7" value="" style="edgeStyle=entityRelationEdgeStyle;fontSize=12;html=1;endArrow=ERone;endFill=1;rounded=0;" edge="1" parent="1" target="6J3txEoCyXHGG0Ito6z_-8">
          <mxGeometry width="100" height="100" relative="1" as="geometry">
            <mxPoint x="230" y="130" as="sourcePoint" />
            <mxPoint x="420" y="130" as="targetPoint" />
          </mxGeometry>
        </mxCell>
        <mxCell id="6J3txEoCyXHGG0Ito6z_-8" value="ter" style="shape=rhombus;perimeter=rhombusPerimeter;whiteSpace=wrap;html=1;align=center;" vertex="1" parent="1">
          <mxGeometry x="370" y="100" width="120" height="60" as="geometry" />
        </mxCell>
        <mxCell id="6J3txEoCyXHGG0Ito6z_-9" value="" style="edgeStyle=entityRelationEdgeStyle;fontSize=12;html=1;endArrow=ERone;endFill=1;rounded=0;" edge="1" parent="1">
          <mxGeometry width="100" height="100" relative="1" as="geometry">
            <mxPoint x="490" y="129.5" as="sourcePoint" />
            <mxPoint x="660" y="129.5" as="targetPoint" />
          </mxGeometry>
        </mxCell>
        <mxCell id="6J3txEoCyXHGG0Ito6z_-10" value="" style="edgeStyle=entityRelationEdgeStyle;fontSize=12;html=1;endArrow=ERone;endFill=1;rounded=0;" edge="1" parent="1" target="6J3txEoCyXHGG0Ito6z_-11">
          <mxGeometry width="100" height="100" relative="1" as="geometry">
            <mxPoint x="830" y="130" as="sourcePoint" />
            <mxPoint x="1030" y="130" as="targetPoint" />
            <Array as="points">
              <mxPoint x="1090" y="-10" />
            </Array>
          </mxGeometry>
        </mxCell>
        <mxCell id="6J3txEoCyXHGG0Ito6z_-11" value="ter" style="shape=rhombus;perimeter=rhombusPerimeter;whiteSpace=wrap;html=1;align=center;" vertex="1" parent="1">
          <mxGeometry x="980" y="100" width="120" height="60" as="geometry" />
        </mxCell>
        <mxCell id="6J3txEoCyXHGG0Ito6z_-12" value="" style="edgeStyle=entityRelationEdgeStyle;fontSize=12;html=1;endArrow=ERone;endFill=1;rounded=0;" edge="1" parent="1">
          <mxGeometry width="100" height="100" relative="1" as="geometry">
            <mxPoint x="1100" y="130" as="sourcePoint" />
            <mxPoint x="1270" y="130" as="targetPoint" />
          </mxGeometry>
        </mxCell>
        <mxCell id="6J3txEoCyXHGG0Ito6z_-13" value="professores" style="rounded=1;arcSize=10;whiteSpace=wrap;html=1;align=center;" vertex="1" parent="1">
          <mxGeometry x="1270" y="90" width="170" height="80" as="geometry" />
        </mxCell>
        <mxCell id="6J3txEoCyXHGG0Ito6z_-14" value="" style="edgeStyle=entityRelationEdgeStyle;fontSize=12;html=1;endArrow=ERone;endFill=1;rounded=0;" edge="1" parent="1" target="6J3txEoCyXHGG0Ito6z_-16">
          <mxGeometry width="100" height="100" relative="1" as="geometry">
            <mxPoint x="730" y="170" as="sourcePoint" />
            <mxPoint x="790" y="330" as="targetPoint" />
          </mxGeometry>
        </mxCell>
        <mxCell id="6J3txEoCyXHGG0Ito6z_-16" value="ter" style="shape=rhombus;perimeter=rhombusPerimeter;whiteSpace=wrap;html=1;align=center;" vertex="1" parent="1">
          <mxGeometry x="880" y="300" width="120" height="60" as="geometry" />
        </mxCell>
        <mxCell id="6J3txEoCyXHGG0Ito6z_-17" value="" style="edgeStyle=entityRelationEdgeStyle;fontSize=12;html=1;endArrow=ERone;endFill=1;rounded=0;exitX=1;exitY=0.5;exitDx=0;exitDy=0;" edge="1" parent="1">
          <mxGeometry width="100" height="100" relative="1" as="geometry">
            <mxPoint x="1000" y="330" as="sourcePoint" />
            <mxPoint x="1050" y="435" as="targetPoint" />
          </mxGeometry>
        </mxCell>
        <mxCell id="6J3txEoCyXHGG0Ito6z_-18" value="" style="edgeStyle=entityRelationEdgeStyle;fontSize=12;html=1;endArrow=ERone;endFill=1;rounded=0;entryX=1.018;entryY=0.663;entryDx=0;entryDy=0;entryPerimeter=0;" edge="1" parent="1" target="6J3txEoCyXHGG0Ito6z_-13">
          <mxGeometry width="100" height="100" relative="1" as="geometry">
            <mxPoint x="1490" y="330" as="sourcePoint" />
            <mxPoint x="1565" y="150" as="targetPoint" />
            <Array as="points">
              <mxPoint x="1510" y="160" />
              <mxPoint x="1540" y="150" />
            </Array>
          </mxGeometry>
        </mxCell>
        <mxCell id="6J3txEoCyXHGG0Ito6z_-19" value="ministrar" style="shape=rhombus;perimeter=rhombusPerimeter;whiteSpace=wrap;html=1;align=center;" vertex="1" parent="1">
          <mxGeometry x="1370" y="300" width="120" height="60" as="geometry" />
        </mxCell>
        <mxCell id="6J3txEoCyXHGG0Ito6z_-21" value="" style="edgeStyle=entityRelationEdgeStyle;fontSize=12;html=1;endArrow=ERone;endFill=1;rounded=0;" edge="1" parent="1" source="6J3txEoCyXHGG0Ito6z_-6">
          <mxGeometry width="100" height="100" relative="1" as="geometry">
            <mxPoint x="1330" y="460" as="sourcePoint" />
            <mxPoint x="1430" y="360" as="targetPoint" />
          </mxGeometry>
        </mxCell>
      </root>
    </mxGraphModel>
  </diagram>
</mxfile>
